<svg xmlns="http://www.w3.org/2000/svg" xmlns:xlink="http://www.w3.org/1999/xlink" width="150" zoomAndPan="magnify" viewBox="0 0 112.5 48.75" height="65" preserveAspectRatio="xMidYMid meet" version="1.0"><defs><g/><clipPath id="3c7cbf143f"><path d="M 0.0390625 11.167969 L 32.265625 11.167969 L 32.265625 37.398438 L 0.0390625 37.398438 Z M 0.0390625 11.167969 " clip-rule="nonzero"/></clipPath></defs><g clip-path="url(#3c7cbf143f)"><path fill="#ffffff" d="M 5.871094 37.398438 C 2.675781 37.398438 0.0742188 34.792969 0.0742188 31.59375 C 0.0742188 29.144531 1.621094 26.976562 3.859375 26.144531 C 3.851562 23.636719 3.875 20.851562 3.921875 18.542969 C 3.945312 17.269531 3.976562 16.199219 4.011719 15.445312 C 4.070312 14.152344 4.101562 13.800781 4.441406 13.457031 C 4.703125 13.195312 4.984375 13.050781 6.289062 12.933594 C 6.289062 12.839844 6.289062 12.746094 6.289062 12.65625 C 6.289062 12.140625 6.550781 11.679688 6.988281 11.425781 C 7.441406 11.167969 8.003906 11.167969 8.457031 11.429688 C 8.894531 11.679688 9.15625 12.140625 9.15625 12.65625 C 9.15625 12.695312 9.15625 12.730469 9.15625 12.769531 C 11.175781 12.695312 13.824219 12.648438 16.703125 12.636719 C 16.707031 12.609375 16.707031 12.582031 16.710938 12.558594 C 16.789062 11.742188 17.496094 11.167969 18.316406 11.246094 C 19.050781 11.320312 19.582031 11.917969 19.574219 12.636719 C 22.402344 12.652344 24.976562 12.699219 26.921875 12.773438 C 26.957031 12.011719 27.574219 11.421875 28.351562 11.417969 C 28.351562 11.417969 28.351562 11.417969 28.355469 11.417969 C 29.15625 11.417969 29.785156 12.042969 29.785156 12.839844 L 29.785156 12.949219 C 30.925781 13.0625 31.230469 13.214844 31.496094 13.539062 C 31.738281 13.835938 31.914062 14.050781 32.0625 17.417969 C 32.136719 19.132812 32.1875 21.464844 32.207031 23.976562 C 32.226562 26.34375 32.21875 28.714844 32.179688 30.484375 C 32.160156 31.421875 32.132812 32.167969 32.101562 32.710938 C 32.042969 33.632812 31.984375 33.964844 31.726562 34.269531 C 31.40625 34.640625 30.988281 34.691406 30.332031 34.742188 C 29.925781 34.777344 29.351562 34.804688 28.621094 34.828125 C 27.292969 34.875 25.40625 34.910156 23.164062 34.925781 C 19.117188 34.960938 14.285156 34.945312 10.644531 34.882812 C 9.570312 36.449219 7.796875 37.398438 5.871094 37.398438 Z M 29.707031 14.632812 Z M 29.707031 14.632812 " fill-opacity="1" fill-rule="nonzero"/></g><path fill="#e6e6e6" d="M 30.671875 14.210938 C 31.230469 14.898438 31.292969 33.140625 30.921875 33.574219 C 30.546875 34.011719 5.628906 33.949219 5.191406 33.574219 C 4.757812 33.203125 4.910156 14.492188 5.191406 14.210938 C 5.875 13.527344 30.113281 13.527344 30.671875 14.210938 Z M 30.671875 14.210938 C 31.230469 14.898438 31.292969 33.140625 30.921875 33.574219 C 30.546875 34.011719 5.628906 33.949219 5.191406 33.574219 C 4.757812 33.203125 4.910156 14.492188 5.191406 14.210938 C 5.875 13.527344 30.113281 13.527344 30.671875 14.210938 Z M 30.671875 14.210938 " fill-opacity="0.6" fill-rule="nonzero"/><path fill="#375da5" d="M 10.425781 20.929688 C 10.363281 20.8125 7.820312 20.789062 7.730469 20.90625 C 7.660156 20.996094 7.636719 23.242188 7.730469 23.285156 C 7.824219 23.332031 10.332031 23.425781 10.414062 23.296875 C 10.492188 23.167969 10.480469 21.023438 10.425781 20.929688 Z M 14.886719 20.929688 C 14.824219 20.8125 12.28125 20.789062 12.191406 20.90625 C 12.121094 20.996094 12.097656 23.242188 12.191406 23.285156 C 12.285156 23.332031 14.792969 23.425781 14.875 23.296875 C 14.953125 23.167969 14.941406 21.023438 14.886719 20.929688 Z M 19.296875 20.929688 C 19.234375 20.8125 16.691406 20.789062 16.601562 20.90625 C 16.53125 20.996094 16.507812 23.242188 16.601562 23.285156 C 16.695312 23.332031 19.203125 23.425781 19.285156 23.296875 C 19.363281 23.167969 19.351562 21.023438 19.296875 20.929688 Z M 23.90625 20.929688 C 23.839844 20.8125 21.296875 20.789062 21.207031 20.90625 C 21.136719 20.996094 21.113281 23.242188 21.207031 23.285156 C 21.300781 23.332031 23.808594 23.425781 23.890625 23.296875 C 23.96875 23.167969 23.957031 21.023438 23.90625 20.929688 Z M 28.363281 20.929688 C 28.300781 20.8125 25.757812 20.789062 25.667969 20.90625 C 25.597656 20.996094 25.574219 23.242188 25.667969 23.285156 C 25.761719 23.332031 28.269531 23.425781 28.351562 23.296875 C 28.429688 23.167969 28.417969 21.023438 28.363281 20.929688 Z M 10.425781 24.914062 C 10.363281 24.796875 7.820312 24.773438 7.730469 24.890625 C 7.660156 24.980469 7.636719 27.226562 7.730469 27.273438 C 7.824219 27.316406 10.332031 27.414062 10.414062 27.285156 C 10.492188 27.152344 10.480469 25.007812 10.425781 24.914062 Z M 14.886719 24.914062 C 14.824219 24.796875 12.28125 24.773438 12.191406 24.890625 C 12.121094 24.980469 12.097656 27.226562 12.191406 27.273438 C 12.285156 27.316406 14.792969 27.414062 14.875 27.285156 C 14.953125 27.152344 14.941406 25.007812 14.886719 24.914062 Z M 19.296875 24.914062 C 19.234375 24.796875 16.691406 24.773438 16.601562 24.890625 C 16.53125 24.980469 16.507812 27.226562 16.601562 27.273438 C 16.695312 27.316406 19.203125 27.414062 19.285156 27.285156 C 19.363281 27.152344 19.351562 25.007812 19.296875 24.914062 Z M 28.363281 24.914062 C 28.300781 24.796875 25.757812 24.773438 25.667969 24.890625 C 25.597656 24.980469 25.574219 27.226562 25.667969 27.273438 C 25.761719 27.316406 28.269531 27.414062 28.351562 27.285156 C 28.429688 27.152344 28.417969 25.007812 28.363281 24.914062 Z M 10.425781 28.898438 C 10.363281 28.785156 7.820312 28.761719 7.730469 28.875 C 7.660156 28.96875 7.636719 31.210938 7.730469 31.257812 C 7.824219 31.300781 10.332031 31.398438 10.414062 31.269531 C 10.492188 31.140625 10.480469 28.992188 10.425781 28.898438 Z M 19.296875 28.898438 C 19.234375 28.785156 16.691406 28.761719 16.601562 28.875 C 16.53125 28.96875 16.507812 31.210938 16.601562 31.257812 C 16.695312 31.300781 19.203125 31.398438 19.285156 31.269531 C 19.363281 31.140625 19.351562 28.992188 19.296875 28.898438 Z M 23.90625 28.898438 C 23.839844 28.785156 21.296875 28.761719 21.207031 28.875 C 21.136719 28.96875 21.113281 31.210938 21.207031 31.257812 C 21.300781 31.300781 23.808594 31.398438 23.890625 31.269531 C 23.96875 31.140625 23.957031 28.992188 23.90625 28.898438 Z M 28.363281 28.898438 C 28.300781 28.785156 25.757812 28.761719 25.667969 28.875 C 25.597656 28.96875 25.574219 31.210938 25.667969 31.257812 C 25.761719 31.300781 28.269531 31.398438 28.351562 31.269531 C 28.429688 31.140625 28.417969 28.992188 28.363281 28.898438 Z M 28.363281 28.898438 " fill-opacity="0.4" fill-rule="nonzero"/><path fill="#375da5" d="M 10.605469 31.59375 C 10.605469 34.210938 8.484375 36.335938 5.871094 36.335938 C 3.257812 36.335938 1.140625 34.210938 1.140625 31.59375 C 1.140625 28.972656 3.257812 26.851562 5.871094 26.851562 C 8.484375 26.851562 10.605469 28.972656 10.605469 31.59375 Z M 10.605469 31.59375 C 10.605469 34.210938 8.484375 36.335938 5.871094 36.335938 C 3.257812 36.335938 1.140625 34.210938 1.140625 31.59375 C 1.140625 28.972656 3.257812 26.851562 5.871094 26.851562 C 8.484375 26.851562 10.605469 28.972656 10.605469 31.59375 Z M 10.605469 31.59375 " fill-opacity="1" fill-rule="nonzero"/><path fill="#fb7e3e" d="M 4.972656 19.074219 C 4.921875 17.367188 5.09375 14.308594 5.191406 14.210938 C 5.875 13.527344 30.113281 13.527344 30.671875 14.210938 C 30.847656 14.429688 30.976562 16.394531 31.054688 18.996094 C 31.0625 19.191406 17.933594 18.707031 4.972656 19.074219 Z M 4.972656 19.074219 C 4.921875 17.367188 5.09375 14.308594 5.191406 14.210938 C 5.875 13.527344 30.113281 13.527344 30.671875 14.210938 C 30.847656 14.429688 30.976562 16.394531 31.054688 18.996094 C 31.0625 19.191406 17.933594 18.707031 4.972656 19.074219 Z M 4.972656 19.074219 " fill-opacity="1" fill-rule="nonzero"/><path fill="#d85536" d="M 7.351562 12.65625 C 7.351562 12.179688 8.09375 12.179688 8.09375 12.65625 C 8.09375 13.359375 8.09375 14.066406 8.09375 14.773438 C 8.09375 15.25 7.355469 15.25 7.355469 14.773438 C 7.351562 14.066406 7.351562 13.359375 7.351562 12.65625 Z M 27.984375 12.84375 C 27.984375 13.464844 27.984375 14.089844 27.984375 14.714844 C 27.984375 15.191406 28.722656 15.191406 28.726562 14.714844 C 28.726562 14.089844 28.722656 13.464844 28.722656 12.84375 C 28.722656 12.367188 27.984375 12.363281 27.984375 12.84375 Z M 17.769531 12.660156 C 17.703125 13.363281 17.632812 14.066406 17.5625 14.765625 C 17.515625 15.242188 18.257812 15.238281 18.304688 14.765625 C 18.371094 14.066406 18.441406 13.363281 18.507812 12.660156 C 18.554688 12.1875 17.816406 12.1875 17.769531 12.660156 Z M 23.90625 24.914062 C 23.839844 24.796875 21.296875 24.773438 21.207031 24.890625 C 21.136719 24.980469 21.113281 27.226562 21.207031 27.273438 C 21.300781 27.316406 23.808594 27.414062 23.890625 27.285156 C 23.96875 27.152344 23.957031 25.007812 23.90625 24.914062 Z M 14.886719 28.898438 C 14.824219 28.785156 12.28125 28.761719 12.191406 28.875 C 12.121094 28.96875 12.097656 31.210938 12.191406 31.257812 C 12.285156 31.300781 14.792969 31.398438 14.875 31.269531 C 14.953125 31.140625 14.941406 28.992188 14.886719 28.898438 Z M 14.886719 28.898438 " fill-opacity="1" fill-rule="nonzero"/><path fill="#ffffff" d="M 8.234375 28.894531 C 7.222656 30.691406 6.375 32.566406 5.699219 34.515625 C 5.582031 34.851562 5.023438 35.003906 4.753906 34.769531 C 4.214844 34.304688 3.726562 33.796875 3.277344 33.25 C 3 32.910156 3.941406 32.546875 4.183594 32.84375 C 4.445312 33.164062 4.726562 33.472656 5.019531 33.765625 C 5.65625 32.066406 6.417969 30.417969 7.308594 28.835938 C 7.488281 28.511719 8.480469 28.457031 8.234375 28.894531 Z M 8.234375 28.894531 C 7.222656 30.691406 6.375 32.566406 5.699219 34.515625 C 5.582031 34.851562 5.023438 35.003906 4.753906 34.769531 C 4.214844 34.304688 3.726562 33.796875 3.277344 33.25 C 3 32.910156 3.941406 32.546875 4.183594 32.84375 C 4.445312 33.164062 4.726562 33.472656 5.019531 33.765625 C 5.65625 32.066406 6.417969 30.417969 7.308594 28.835938 C 7.488281 28.511719 8.480469 28.457031 8.234375 28.894531 Z M 8.234375 28.894531 " fill-opacity="1" fill-rule="nonzero"/><g fill="#ffffff" fill-opacity="1"><g transform="translate(38.417, 29.544773)"><g><path d="M 1.484375 -10.953125 C 1.0625 -10.9375 0.953125 -10.84375 0.9375 -10.40625 C 0.9375 -9.515625 1 -8.625 1 -7.734375 C 1 -6.40625 0.921875 -5.078125 0.984375 -3.765625 C 1.015625 -2.78125 1.015625 -1.78125 1.015625 -0.796875 C 1.015625 -0.5625 0.984375 -0.3125 1.03125 -0.03125 C 2.390625 0 3.703125 0.015625 5.015625 0.046875 C 5.09375 0.046875 5.15625 0.015625 5.234375 -0.0625 C 5.265625 -1.125 5.203125 -2.21875 5.28125 -3.28125 C 5.5 -3.390625 5.6875 -3.359375 5.875 -3.359375 C 6.375 -3.390625 6.875 -3.328125 7.359375 -3.359375 C 8.046875 -3.390625 8.71875 -3.390625 9.390625 -3.4375 C 10.21875 -3.5 10.953125 -3.84375 11.59375 -4.34375 C 11.75 -4.453125 11.90625 -4.5625 11.984375 -4.75 C 12.234375 -5.296875 12.640625 -5.796875 12.65625 -6.453125 C 12.65625 -6.6875 12.75 -6.9375 12.75 -7.1875 C 12.75 -7.96875 12.453125 -8.671875 12.046875 -9.3125 C 11.59375 -10 10.9375 -10.390625 10.171875 -10.59375 C 9.21875 -10.859375 8.234375 -10.9375 7.25 -10.9375 C 7.09375 -10.9375 6.921875 -10.890625 6.765625 -10.890625 C 5.859375 -10.890625 4.953125 -10.90625 4.046875 -10.890625 C 3.203125 -10.859375 2.34375 -10.96875 1.484375 -10.953125 Z M 6.53125 -9.265625 C 6.609375 -9.25 6.6875 -9.234375 6.765625 -9.234375 C 7.078125 -9.25 7.328125 -9.078125 7.5 -8.84375 C 7.6875 -8.625 7.84375 -8.359375 7.90625 -8.0625 C 8.0625 -7.4375 8.078125 -6.796875 7.84375 -6.171875 C 7.609375 -5.515625 7.078125 -5.03125 6.265625 -5.0625 C 5.953125 -5.0625 5.625 -5.03125 5.265625 -5.09375 C 5.203125 -6.5 5.234375 -7.859375 5.25 -9.265625 C 5.6875 -9.328125 6.109375 -9.34375 6.53125 -9.265625 Z M 6.53125 -9.265625 "/></g></g></g><g fill="#ffffff" fill-opacity="1"><g transform="translate(51.867686, 29.544773)"><g><path d="M 7.828125 -8.28125 C 6.359375 -8.421875 5.453125 -7.96875 4.4375 -7 C 4.15625 -7.359375 4.03125 -7.828125 3.71875 -8.125 C 3.734375 -8.21875 1.515625 -8.15625 0.9375 -8.09375 C 1.0625 -5.390625 1.140625 -2.671875 1.109375 -0.046875 C 1.234375 0.0625 1.328125 0.046875 1.421875 0.03125 C 1.828125 0.015625 2.234375 0.015625 2.640625 -0.015625 C 3.203125 -0.078125 3.765625 -0.03125 4.328125 -0.046875 C 4.625 -0.046875 4.6875 -0.109375 4.71875 -0.40625 L 4.71875 -0.65625 C 4.703125 -0.90625 4.6875 -1.171875 4.703125 -1.421875 C 4.734375 -2.75 4.671875 -3.921875 4.703125 -5.25 C 4.765625 -5.359375 4.875 -5.421875 4.96875 -5.515625 C 5.59375 -6.046875 6.140625 -6.078125 6.84375 -6.015625 C 7.125 -5.984375 7.40625 -5.890625 7.640625 -5.71875 C 7.71875 -5.65625 7.796875 -5.640625 7.890625 -5.71875 C 7.984375 -5.96875 7.921875 -6.25 7.921875 -6.53125 C 7.9375 -6.796875 7.9375 -7.140625 7.921875 -7.40625 C 7.90625 -7.6875 7.9375 -7.9375 7.828125 -8.28125 Z M 7.828125 -8.28125 "/></g></g></g><g fill="#ffffff" fill-opacity="1"><g transform="translate(60.413019, 29.544773)"><g><path d="M 4.90625 -8.359375 C 4.4375 -8.296875 3.96875 -8.140625 3.515625 -7.984375 C 2.1875 -7.515625 1.296875 -6.640625 0.890625 -5.265625 C 0.703125 -4.609375 0.671875 -3.96875 0.734375 -3.296875 C 0.796875 -2.671875 1.015625 -2.09375 1.375 -1.59375 C 1.921875 -0.84375 2.609375 -0.265625 3.5625 -0.046875 C 3.578125 -0.046875 3.59375 -0.03125 3.625 -0.03125 C 4.140625 0.1875 4.6875 0.21875 5.234375 0.265625 C 5.71875 0.3125 6.203125 0.265625 6.671875 0.265625 C 7.859375 0.203125 8.953125 -0.0625 9.859375 -0.890625 C 10.0625 -1.0625 10.203125 -1.28125 10.375 -1.5 C 10.640625 -1.84375 10.828125 -2.234375 10.9375 -2.671875 C 11.078125 -3.28125 11.140625 -3.90625 11.015625 -4.53125 C 10.890625 -5.140625 10.734375 -5.71875 10.40625 -6.25 C 9.9375 -6.984375 9.34375 -7.53125 8.5625 -7.875 C 8.109375 -8.078125 7.640625 -8.234375 7.15625 -8.328125 C 6.40625 -8.46875 5.65625 -8.46875 4.90625 -8.359375 Z M 6.03125 -6.703125 C 6.34375 -6.671875 6.578125 -6.515625 6.78125 -6.296875 C 7.171875 -5.875 7.234375 -5.28125 7.265625 -4.734375 L 7.265625 -4.078125 C 7.265625 -3.515625 7.234375 -2.953125 7.0625 -2.421875 C 6.96875 -2.15625 6.84375 -1.90625 6.640625 -1.71875 C 6.15625 -1.21875 5.5 -1.34375 5.09375 -1.859375 C 4.96875 -2 4.84375 -2.1875 4.78125 -2.359375 C 4.578125 -2.890625 4.546875 -3.453125 4.515625 -4 C 4.46875 -4.6875 4.6875 -5.328125 4.921875 -5.96875 C 5.09375 -6.453125 5.546875 -6.75 6.03125 -6.703125 Z M 6.03125 -6.703125 "/></g></g></g><g fill="#ffffff" fill-opacity="1"><g transform="translate(72.19214, 29.544773)"><g><path d="M 14.53125 -10.96875 C 14.484375 -10.96875 14.390625 -10.96875 14.328125 -10.953125 C 13.796875 -10.953125 13.265625 -10.9375 12.734375 -10.90625 C 12.484375 -10.890625 12.21875 -10.875 11.96875 -10.875 C 11.53125 -10.875 11.109375 -10.90625 10.671875 -10.90625 C 10.5 -10.921875 10.4375 -10.859375 10.375 -10.734375 C 10.25 -10.46875 10.140625 -10.1875 10 -9.921875 C 9.703125 -9.359375 9.40625 -8.796875 9.109375 -8.25 C 8.9375 -7.90625 8.71875 -7.5625 8.546875 -7.21875 C 8.390625 -6.875 8.1875 -6.5625 8.078125 -6.203125 C 8.03125 -6.0625 7.9375 -5.9375 7.859375 -5.796875 C 7.4375 -6.328125 7.109375 -6.90625 6.78125 -7.515625 C 6.484375 -8.03125 6.125 -8.5 5.859375 -9.03125 C 5.546875 -9.65625 5.15625 -10.25 4.90625 -10.90625 C 4.875 -10.96875 4.8125 -10.96875 4.71875 -10.96875 C 4.609375 -10.96875 4.484375 -10.953125 4.375 -10.953125 C 3.828125 -10.9375 3.265625 -10.953125 2.71875 -10.953125 C 2.140625 -10.9375 1.609375 -10.90625 1.015625 -10.953125 C 0.96875 -10.828125 0.921875 -10.71875 0.953125 -10.578125 C 0.96875 -10.421875 0.9375 -10.25 0.953125 -10.0625 C 0.96875 -9.78125 0.984375 -9.5 0.984375 -9.203125 C 0.96875 -8.796875 1.03125 -8.40625 1 -8 C 0.96875 -7.609375 1.015625 -7.21875 1.015625 -6.8125 L 1.015625 -5.3125 C 1.015625 -4.84375 1.015625 -4.390625 1.03125 -3.9375 L 1.015625 -2.140625 C 1.03125 -1.796875 1.015625 -1.453125 1 -1.125 C 0.984375 -0.8125 1.015625 -0.484375 0.984375 -0.1875 C 0.984375 -0.09375 1.046875 -0.015625 1.15625 -0.046875 C 1.53125 -0.125 2.125 -0.0625 2.5 -0.078125 C 2.671875 -0.09375 2.59375 -0.421875 2.59375 -0.484375 C 2.578125 -0.859375 2.609375 -1.203125 2.59375 -1.5625 C 2.5625 -2.1875 2.5625 -2.828125 2.578125 -3.46875 C 2.59375 -3.859375 2.59375 -4.28125 2.578125 -4.6875 C 2.578125 -5 2.5625 -5.3125 2.546875 -5.625 C 2.546875 -5.765625 2.59375 -5.921875 2.5625 -6.046875 C 2.515625 -6.328125 2.546875 -6.59375 2.515625 -6.90625 C 2.671875 -6.703125 2.75 -6.53125 2.859375 -6.359375 C 3.015625 -6.109375 3.1875 -5.84375 3.359375 -5.609375 C 3.609375 -5.28125 3.796875 -4.9375 4 -4.59375 C 4.3125 -4.09375 4.625 -3.5625 4.953125 -3.0625 C 5.125 -2.78125 5.3125 -2.515625 5.484375 -2.234375 C 5.53125 -2.171875 5.578125 -2.125 5.640625 -2.125 C 5.78125 -2.125 5.921875 -2.125 6.0625 -2.140625 C 6.640625 -2.171875 7.234375 -2.265625 7.796875 -2.140625 C 7.96875 -2.109375 8.0625 -2.171875 8.125 -2.328125 C 8.296875 -2.765625 8.484375 -3.1875 8.703125 -3.59375 C 9.15625 -4.484375 9.59375 -5.359375 10.0625 -6.234375 C 10.171875 -6.421875 10.296875 -6.59375 10.4375 -6.78125 C 10.515625 -6.03125 10.40625 -5.3125 10.421875 -4.578125 C 10.4375 -4.109375 10.453125 -3.609375 10.421875 -3.125 C 10.375 -2.5 10.375 -1.890625 10.375 -1.265625 C 10.359375 -0.875 10.328125 -0.21875 10.390625 -0.0625 C 10.5 -0.03125 10.53125 0.015625 10.625 0 C 10.984375 -0.0625 11.34375 -0.015625 11.703125 0 C 12.484375 0.03125 13.265625 -0.09375 14.03125 -0.078125 L 14.59375 -0.078125 C 14.703125 -0.171875 14.71875 -0.28125 14.703125 -0.40625 C 14.703125 -0.640625 14.6875 -0.90625 14.6875 -1.140625 C 14.6875 -1.375 14.703125 -1.625 14.671875 -1.859375 C 14.640625 -2.1875 14.65625 -2.5 14.640625 -2.828125 C 14.625 -3.171875 14.625 -3.5 14.640625 -3.84375 C 14.640625 -4.109375 14.59375 -4.359375 14.609375 -4.609375 C 14.640625 -5.203125 14.65625 -5.796875 14.65625 -6.40625 C 14.65625 -6.734375 14.625 -7.09375 14.65625 -7.421875 C 14.671875 -7.734375 14.640625 -8.03125 14.640625 -8.34375 C 14.65625 -8.734375 14.609375 -9.125 14.578125 -9.515625 L 14.578125 -10.703125 C 14.578125 -10.8125 14.65625 -10.890625 14.53125 -10.96875 Z M 14.53125 -10.96875 "/></g></g></g><g fill="#ffffff" fill-opacity="1"><g transform="translate(87.861183, 29.544773)"><g><path d="M 6.375 -8.390625 C 5.703125 -8.40625 5.03125 -8.390625 4.359375 -8.34375 C 3.46875 -8.265625 2.609375 -8.046875 1.78125 -7.71875 C 1.625 -7.65625 1.4375 -7.609375 1.34375 -7.375 C 1.625 -6.890625 2 -6.078125 2.171875 -5.96875 C 2.21875 -5.921875 2.484375 -6.09375 2.640625 -6.171875 C 3.0625 -6.40625 3.34375 -6.4375 3.78125 -6.546875 C 4.390625 -6.703125 4.9375 -6.796875 5.5625 -6.578125 C 6.09375 -6.390625 6.40625 -5.984375 6.34375 -5.40625 C 6.234375 -5.375 6.046875 -5.421875 5.9375 -5.40625 C 5.65625 -5.390625 5.390625 -5.4375 5.109375 -5.4375 C 4.34375 -5.46875 3.578125 -5.375 2.84375 -5.171875 C 2.109375 -4.96875 1.515625 -4.578125 1.125 -3.921875 C 0.71875 -3.21875 0.609375 -2.484375 0.78125 -1.703125 C 0.96875 -0.875 1.5 -0.328125 2.265625 0 C 2.953125 0.28125 3.6875 0.265625 4.421875 0.171875 C 5.1875 0.0625 5.890625 -0.203125 6.5 -0.71875 C 6.5625 -0.765625 6.609375 -0.828125 6.703125 -0.828125 C 7.046875 -0.65625 7.203125 -0.28125 7.5 0.015625 C 8.328125 0.015625 9.15625 -0.078125 9.96875 0 C 10.0625 -0.125 10.0625 -0.21875 10.046875 -0.328125 C 9.984375 -0.96875 10 -1.671875 10.015625 -2.3125 C 10.03125 -3.296875 10.015625 -4.28125 10 -5.265625 C 9.984375 -5.8125 9.828125 -6.328125 9.484375 -6.78125 C 9.3125 -7 9.109375 -7.1875 8.890625 -7.359375 C 8.171875 -7.96875 7.34375 -8.359375 6.375 -8.390625 Z M 6.40625 -3.90625 C 6.40625 -3.234375 6.359375 -2.609375 6.421875 -2 C 6.25 -1.78125 6.046875 -1.625 5.8125 -1.53125 C 5.296875 -1.296875 4.59375 -1.671875 4.515625 -2.25 C 4.421875 -3.0625 4.734375 -3.65625 5.65625 -3.859375 C 5.890625 -3.90625 6.140625 -3.90625 6.40625 -3.90625 Z M 6.40625 -3.90625 "/></g></g></g><g fill="#ffffff" fill-opacity="1"><g transform="translate(98.874815, 29.544773)"><g><path d="M 8.640625 -8.28125 C 7.59375 -8.53125 6.625 -8.296875 5.65625 -7.9375 C 5.203125 -7.765625 4.8125 -7.515625 4.40625 -7.234375 C 4.125 -7.46875 3.984375 -7.890625 3.78125 -8.15625 C 2.578125 -8.296875 1.890625 -8.171875 0.953125 -8.15625 C 0.921875 -5.453125 0.9375 -2.6875 1.03125 0 L 4.234375 0 C 4.4375 0 4.640625 0.015625 4.8125 -0.140625 C 4.828125 -0.8125 4.765625 -1.453125 4.75 -2.109375 C 4.71875 -3.125 4.734375 -4.125 4.734375 -5.140625 C 4.734375 -5.375 4.78125 -5.609375 4.84375 -5.8125 C 5.203125 -6.078125 5.515625 -6.375 5.921875 -6.53125 C 6.5625 -6.765625 7.25 -6.359375 7.15625 -5.640625 C 7.15625 -5.15625 7.140625 -4.75 7.171875 -4.296875 C 7.21875 -3.65625 7.203125 -3 7.203125 -2.34375 C 7.203125 -1.75 7.21875 -1.140625 7.21875 -0.53125 C 7.21875 -0.390625 7.1875 -0.21875 7.265625 -0.0625 C 7.40625 0.078125 7.546875 0.078125 7.71875 0.078125 C 8.109375 0.046875 8.4375 0.03125 8.828125 0.03125 C 9.5 0.015625 10.171875 0.015625 10.84375 0 C 10.921875 0 10.984375 0 11.046875 -0.078125 C 11.015625 -1.28125 11.015625 -2.5 10.96875 -3.71875 C 10.9375 -4.453125 10.984375 -5.1875 10.9375 -5.921875 C 10.875 -6.9375 10.3125 -7.59375 9.46875 -8.0625 C 9.203125 -8.203125 8.921875 -8.21875 8.640625 -8.28125 Z M 8.640625 -8.28125 "/></g></g></g></svg>