<svg xmlns="http://www.w3.org/2000/svg" xmlns:xlink="http://www.w3.org/1999/xlink" width="150" zoomAndPan="magnify" viewBox="0 0 112.5 48.75" height="65" preserveAspectRatio="xMidYMid meet" version="1.0"><defs><g/><clipPath id="16ef4f0c88"><path d="M 0.0390625 0 L 111.964844 0 L 111.964844 48.5 L 0.0390625 48.5 Z M 0.0390625 0 " clip-rule="nonzero"/></clipPath><clipPath id="ee157bbf94"><path d="M 0.0390625 11.167969 L 32.265625 11.167969 L 32.265625 37.398438 L 0.0390625 37.398438 Z M 0.0390625 11.167969 " clip-rule="nonzero"/></clipPath></defs><g clip-path="url(#16ef4f0c88)"><path fill="#ffffff" d="M 0.0390625 0 L 112.460938 0 L 112.460938 55.460938 L 0.0390625 55.460938 Z M 0.0390625 0 " fill-opacity="1" fill-rule="nonzero"/><path fill="#ffffff" d="M 0.0390625 0 L 112.460938 0 L 112.460938 48.71875 L 0.0390625 48.71875 Z M 0.0390625 0 " fill-opacity="1" fill-rule="nonzero"/><path fill="#ffffff" d="M 0.0390625 0 L 112.460938 0 L 112.460938 48.71875 L 0.0390625 48.71875 Z M 0.0390625 0 " fill-opacity="1" fill-rule="nonzero"/></g><g clip-path="url(#ee157bbf94)"><path fill="#ffffff" d="M 5.871094 37.398438 C 2.675781 37.398438 0.0742188 34.792969 0.0742188 31.59375 C 0.0742188 29.144531 1.621094 26.976562 3.859375 26.144531 C 3.851562 23.636719 3.875 20.851562 3.921875 18.542969 C 3.945312 17.269531 3.976562 16.199219 4.011719 15.445312 C 4.070312 14.152344 4.101562 13.800781 4.441406 13.457031 C 4.703125 13.195312 4.984375 13.050781 6.289062 12.933594 C 6.289062 12.839844 6.289062 12.746094 6.289062 12.65625 C 6.289062 12.140625 6.550781 11.679688 6.988281 11.425781 C 7.441406 11.167969 8.003906 11.167969 8.457031 11.429688 C 8.894531 11.679688 9.15625 12.140625 9.15625 12.65625 C 9.15625 12.695312 9.15625 12.730469 9.15625 12.769531 C 11.175781 12.695312 13.824219 12.648438 16.703125 12.636719 C 16.707031 12.609375 16.707031 12.582031 16.710938 12.558594 C 16.789062 11.742188 17.496094 11.167969 18.316406 11.246094 C 19.050781 11.320312 19.582031 11.917969 19.574219 12.636719 C 22.402344 12.652344 24.976562 12.699219 26.921875 12.773438 C 26.957031 12.011719 27.574219 11.421875 28.351562 11.417969 C 28.351562 11.417969 28.351562 11.417969 28.355469 11.417969 C 29.15625 11.417969 29.785156 12.042969 29.785156 12.839844 L 29.785156 12.949219 C 30.925781 13.0625 31.230469 13.214844 31.496094 13.539062 C 31.738281 13.835938 31.914062 14.050781 32.0625 17.417969 C 32.136719 19.132812 32.1875 21.464844 32.207031 23.976562 C 32.226562 26.34375 32.21875 28.714844 32.179688 30.484375 C 32.160156 31.421875 32.132812 32.167969 32.101562 32.710938 C 32.042969 33.632812 31.984375 33.964844 31.726562 34.269531 C 31.40625 34.640625 30.988281 34.691406 30.332031 34.742188 C 29.925781 34.777344 29.351562 34.804688 28.621094 34.828125 C 27.292969 34.875 25.40625 34.910156 23.164062 34.925781 C 19.117188 34.960938 14.285156 34.945312 10.644531 34.882812 C 9.570312 36.449219 7.796875 37.398438 5.871094 37.398438 Z M 29.707031 14.632812 Z M 29.707031 14.632812 " fill-opacity="1" fill-rule="nonzero"/></g><path fill="#e6e6e6" d="M 30.671875 14.210938 C 31.230469 14.898438 31.292969 33.140625 30.921875 33.574219 C 30.546875 34.011719 5.628906 33.949219 5.191406 33.574219 C 4.757812 33.203125 4.910156 14.492188 5.191406 14.210938 C 5.875 13.527344 30.113281 13.527344 30.671875 14.210938 Z M 30.671875 14.210938 C 31.230469 14.898438 31.292969 33.140625 30.921875 33.574219 C 30.546875 34.011719 5.628906 33.949219 5.191406 33.574219 C 4.757812 33.203125 4.910156 14.492188 5.191406 14.210938 C 5.875 13.527344 30.113281 13.527344 30.671875 14.210938 Z M 30.671875 14.210938 " fill-opacity="0.6" fill-rule="nonzero"/><path fill="#375da5" d="M 10.425781 20.929688 C 10.363281 20.8125 7.820312 20.789062 7.730469 20.90625 C 7.660156 20.996094 7.636719 23.242188 7.730469 23.285156 C 7.824219 23.332031 10.332031 23.425781 10.414062 23.296875 C 10.492188 23.167969 10.480469 21.023438 10.425781 20.929688 Z M 14.886719 20.929688 C 14.824219 20.8125 12.28125 20.789062 12.191406 20.90625 C 12.121094 20.996094 12.097656 23.242188 12.191406 23.285156 C 12.285156 23.332031 14.792969 23.425781 14.875 23.296875 C 14.953125 23.167969 14.941406 21.023438 14.886719 20.929688 Z M 19.296875 20.929688 C 19.234375 20.8125 16.691406 20.789062 16.601562 20.90625 C 16.53125 20.996094 16.507812 23.242188 16.601562 23.285156 C 16.695312 23.332031 19.203125 23.425781 19.285156 23.296875 C 19.363281 23.167969 19.351562 21.023438 19.296875 20.929688 Z M 23.90625 20.929688 C 23.839844 20.8125 21.296875 20.789062 21.207031 20.90625 C 21.136719 20.996094 21.113281 23.242188 21.207031 23.285156 C 21.300781 23.332031 23.808594 23.425781 23.890625 23.296875 C 23.96875 23.167969 23.957031 21.023438 23.90625 20.929688 Z M 28.363281 20.929688 C 28.300781 20.8125 25.757812 20.789062 25.667969 20.90625 C 25.597656 20.996094 25.574219 23.242188 25.667969 23.285156 C 25.761719 23.332031 28.269531 23.425781 28.351562 23.296875 C 28.429688 23.167969 28.417969 21.023438 28.363281 20.929688 Z M 10.425781 24.914062 C 10.363281 24.796875 7.820312 24.773438 7.730469 24.890625 C 7.660156 24.980469 7.636719 27.226562 7.730469 27.273438 C 7.824219 27.316406 10.332031 27.414062 10.414062 27.285156 C 10.492188 27.152344 10.480469 25.007812 10.425781 24.914062 Z M 14.886719 24.914062 C 14.824219 24.796875 12.28125 24.773438 12.191406 24.890625 C 12.121094 24.980469 12.097656 27.226562 12.191406 27.273438 C 12.285156 27.316406 14.792969 27.414062 14.875 27.285156 C 14.953125 27.152344 14.941406 25.007812 14.886719 24.914062 Z M 19.296875 24.914062 C 19.234375 24.796875 16.691406 24.773438 16.601562 24.890625 C 16.53125 24.980469 16.507812 27.226562 16.601562 27.273438 C 16.695312 27.316406 19.203125 27.414062 19.285156 27.285156 C 19.363281 27.152344 19.351562 25.007812 19.296875 24.914062 Z M 28.363281 24.914062 C 28.300781 24.796875 25.757812 24.773438 25.667969 24.890625 C 25.597656 24.980469 25.574219 27.226562 25.667969 27.273438 C 25.761719 27.316406 28.269531 27.414062 28.351562 27.285156 C 28.429688 27.152344 28.417969 25.007812 28.363281 24.914062 Z M 10.425781 28.898438 C 10.363281 28.785156 7.820312 28.761719 7.730469 28.875 C 7.660156 28.96875 7.636719 31.210938 7.730469 31.257812 C 7.824219 31.300781 10.332031 31.398438 10.414062 31.269531 C 10.492188 31.140625 10.480469 28.992188 10.425781 28.898438 Z M 19.296875 28.898438 C 19.234375 28.785156 16.691406 28.761719 16.601562 28.875 C 16.53125 28.96875 16.507812 31.210938 16.601562 31.257812 C 16.695312 31.300781 19.203125 31.398438 19.285156 31.269531 C 19.363281 31.140625 19.351562 28.992188 19.296875 28.898438 Z M 23.90625 28.898438 C 23.839844 28.785156 21.296875 28.761719 21.207031 28.875 C 21.136719 28.96875 21.113281 31.210938 21.207031 31.257812 C 21.300781 31.300781 23.808594 31.398438 23.890625 31.269531 C 23.96875 31.140625 23.957031 28.992188 23.90625 28.898438 Z M 28.363281 28.898438 C 28.300781 28.785156 25.757812 28.761719 25.667969 28.875 C 25.597656 28.96875 25.574219 31.210938 25.667969 31.257812 C 25.761719 31.300781 28.269531 31.398438 28.351562 31.269531 C 28.429688 31.140625 28.417969 28.992188 28.363281 28.898438 Z M 28.363281 28.898438 " fill-opacity="0.4" fill-rule="nonzero"/><path fill="#375da5" d="M 10.605469 31.59375 C 10.605469 34.210938 8.484375 36.335938 5.871094 36.335938 C 3.257812 36.335938 1.140625 34.210938 1.140625 31.59375 C 1.140625 28.972656 3.257812 26.851562 5.871094 26.851562 C 8.484375 26.851562 10.605469 28.972656 10.605469 31.59375 Z M 10.605469 31.59375 C 10.605469 34.210938 8.484375 36.335938 5.871094 36.335938 C 3.257812 36.335938 1.140625 34.210938 1.140625 31.59375 C 1.140625 28.972656 3.257812 26.851562 5.871094 26.851562 C 8.484375 26.851562 10.605469 28.972656 10.605469 31.59375 Z M 10.605469 31.59375 " fill-opacity="1" fill-rule="nonzero"/><path fill="#fb7e3e" d="M 4.972656 19.074219 C 4.921875 17.367188 5.09375 14.308594 5.191406 14.210938 C 5.875 13.527344 30.113281 13.527344 30.671875 14.210938 C 30.847656 14.429688 30.976562 16.394531 31.054688 18.996094 C 31.0625 19.191406 17.933594 18.707031 4.972656 19.074219 Z M 4.972656 19.074219 C 4.921875 17.367188 5.09375 14.308594 5.191406 14.210938 C 5.875 13.527344 30.113281 13.527344 30.671875 14.210938 C 30.847656 14.429688 30.976562 16.394531 31.054688 18.996094 C 31.0625 19.191406 17.933594 18.707031 4.972656 19.074219 Z M 4.972656 19.074219 " fill-opacity="1" fill-rule="nonzero"/><path fill="#d85536" d="M 7.351562 12.65625 C 7.351562 12.179688 8.09375 12.179688 8.09375 12.65625 C 8.09375 13.359375 8.09375 14.066406 8.09375 14.773438 C 8.09375 15.25 7.355469 15.25 7.355469 14.773438 C 7.351562 14.066406 7.351562 13.359375 7.351562 12.65625 Z M 27.984375 12.84375 C 27.984375 13.464844 27.984375 14.089844 27.984375 14.714844 C 27.984375 15.191406 28.722656 15.191406 28.726562 14.714844 C 28.726562 14.089844 28.722656 13.464844 28.722656 12.84375 C 28.722656 12.367188 27.984375 12.363281 27.984375 12.84375 Z M 17.769531 12.660156 C 17.703125 13.363281 17.632812 14.066406 17.5625 14.765625 C 17.515625 15.242188 18.257812 15.238281 18.304688 14.765625 C 18.371094 14.066406 18.441406 13.363281 18.507812 12.660156 C 18.554688 12.1875 17.816406 12.1875 17.769531 12.660156 Z M 23.90625 24.914062 C 23.839844 24.796875 21.296875 24.773438 21.207031 24.890625 C 21.136719 24.980469 21.113281 27.226562 21.207031 27.273438 C 21.300781 27.316406 23.808594 27.414062 23.890625 27.285156 C 23.96875 27.152344 23.957031 25.007812 23.90625 24.914062 Z M 14.886719 28.898438 C 14.824219 28.785156 12.28125 28.761719 12.191406 28.875 C 12.121094 28.96875 12.097656 31.210938 12.191406 31.257812 C 12.285156 31.300781 14.792969 31.398438 14.875 31.269531 C 14.953125 31.140625 14.941406 28.992188 14.886719 28.898438 Z M 14.886719 28.898438 " fill-opacity="1" fill-rule="nonzero"/><path fill="#ffffff" d="M 8.234375 28.894531 C 7.222656 30.691406 6.375 32.566406 5.699219 34.515625 C 5.582031 34.851562 5.023438 35.003906 4.753906 34.769531 C 4.214844 34.304688 3.726562 33.796875 3.277344 33.25 C 3 32.910156 3.941406 32.546875 4.183594 32.84375 C 4.445312 33.164062 4.726562 33.472656 5.019531 33.765625 C 5.65625 32.066406 6.417969 30.417969 7.308594 28.835938 C 7.488281 28.511719 8.480469 28.457031 8.234375 28.894531 Z M 8.234375 28.894531 C 7.222656 30.691406 6.375 32.566406 5.699219 34.515625 C 5.582031 34.851562 5.023438 35.003906 4.753906 34.769531 C 4.214844 34.304688 3.726562 33.796875 3.277344 33.25 C 3 32.910156 3.941406 32.546875 4.183594 32.84375 C 4.445312 33.164062 4.726562 33.472656 5.019531 33.765625 C 5.65625 32.066406 6.417969 30.417969 7.308594 28.835938 C 7.488281 28.511719 8.480469 28.457031 8.234375 28.894531 Z M 8.234375 28.894531 " fill-opacity="1" fill-rule="nonzero"/><g fill="#646464" fill-opacity="1"><g transform="translate(36.171073, 29.80342)"><g><path d="M 1.539062 -11.367188 C 1.101562 -11.351562 0.988281 -11.253906 0.972656 -10.800781 C 0.972656 -9.878906 1.039062 -8.953125 1.039062 -8.027344 C 1.039062 -6.648438 0.957031 -5.269531 1.023438 -3.910156 C 1.054688 -2.886719 1.054688 -1.847656 1.054688 -0.828125 C 1.054688 -0.582031 1.023438 -0.324219 1.070312 -0.03125 C 2.480469 0 3.84375 0.015625 5.207031 0.046875 C 5.289062 0.046875 5.351562 0.015625 5.433594 -0.0664062 C 5.464844 -1.167969 5.402344 -2.304688 5.480469 -3.40625 C 5.707031 -3.519531 5.902344 -3.488281 6.097656 -3.488281 C 6.617188 -3.519531 7.136719 -3.453125 7.640625 -3.488281 C 8.351562 -3.519531 9.050781 -3.519531 9.746094 -3.566406 C 10.605469 -3.632812 11.367188 -3.988281 12.035156 -4.507812 C 12.195312 -4.621094 12.359375 -4.734375 12.441406 -4.929688 C 12.699219 -5.496094 13.121094 -6.015625 13.136719 -6.699219 C 13.136719 -6.941406 13.234375 -7.199219 13.234375 -7.460938 C 13.234375 -8.269531 12.925781 -9 12.503906 -9.667969 C 12.035156 -10.378906 11.351562 -10.785156 10.558594 -10.996094 C 9.570312 -11.273438 8.546875 -11.351562 7.523438 -11.351562 C 7.363281 -11.351562 7.183594 -11.304688 7.023438 -11.304688 C 6.082031 -11.304688 5.140625 -11.320312 4.199219 -11.304688 C 3.324219 -11.273438 2.433594 -11.386719 1.539062 -11.367188 Z M 6.777344 -9.617188 C 6.859375 -9.601562 6.941406 -9.585938 7.023438 -9.585938 C 7.347656 -9.601562 7.605469 -9.421875 7.785156 -9.179688 C 7.980469 -8.953125 8.140625 -8.675781 8.207031 -8.367188 C 8.367188 -7.71875 8.386719 -7.054688 8.140625 -6.40625 C 7.898438 -5.726562 7.347656 -5.222656 6.503906 -5.253906 C 6.179688 -5.253906 5.839844 -5.222656 5.464844 -5.289062 C 5.402344 -6.746094 5.433594 -8.15625 5.449219 -9.617188 C 5.902344 -9.683594 6.339844 -9.699219 6.777344 -9.617188 Z M 6.777344 -9.617188 "/></g></g></g><g fill="#646464" fill-opacity="1"><g transform="translate(50.130854, 29.80342)"><g><path d="M 8.125 -8.597656 C 6.601562 -8.742188 5.660156 -8.269531 4.605469 -7.265625 C 4.3125 -7.640625 4.183594 -8.125 3.859375 -8.433594 C 3.875 -8.53125 1.574219 -8.464844 0.972656 -8.402344 C 1.101562 -5.59375 1.183594 -2.773438 1.152344 -0.046875 C 1.28125 0.0664062 1.378906 0.046875 1.476562 0.03125 C 1.898438 0.015625 2.320312 0.015625 2.742188 -0.015625 C 3.324219 -0.0820312 3.910156 -0.03125 4.492188 -0.046875 C 4.800781 -0.046875 4.867188 -0.113281 4.898438 -0.421875 L 4.898438 -0.679688 C 4.882812 -0.941406 4.867188 -1.214844 4.882812 -1.476562 C 4.914062 -2.855469 4.847656 -4.070312 4.882812 -5.449219 C 4.945312 -5.5625 5.058594 -5.628906 5.15625 -5.726562 C 5.804688 -6.277344 6.375 -6.308594 7.105469 -6.242188 C 7.394531 -6.210938 7.6875 -6.113281 7.929688 -5.9375 C 8.011719 -5.871094 8.09375 -5.855469 8.191406 -5.9375 C 8.289062 -6.195312 8.222656 -6.488281 8.222656 -6.777344 C 8.238281 -7.054688 8.238281 -7.410156 8.222656 -7.6875 C 8.207031 -7.980469 8.238281 -8.238281 8.125 -8.597656 Z M 8.125 -8.597656 "/></g></g></g><g fill="#646464" fill-opacity="1"><g transform="translate(58.99962, 29.80342)"><g><path d="M 5.09375 -8.675781 C 4.605469 -8.613281 4.121094 -8.449219 3.648438 -8.289062 C 2.269531 -7.800781 1.347656 -6.894531 0.925781 -5.464844 C 0.730469 -4.785156 0.699219 -4.121094 0.761719 -3.421875 C 0.828125 -2.773438 1.054688 -2.171875 1.425781 -1.652344 C 1.996094 -0.875 2.707031 -0.277344 3.699219 -0.046875 C 3.714844 -0.046875 3.730469 -0.03125 3.761719 -0.03125 C 4.296875 0.195312 4.867188 0.226562 5.433594 0.277344 C 5.9375 0.324219 6.4375 0.277344 6.925781 0.277344 C 8.15625 0.210938 9.292969 -0.0664062 10.234375 -0.925781 C 10.445312 -1.101562 10.589844 -1.328125 10.769531 -1.558594 C 11.042969 -1.914062 11.238281 -2.320312 11.351562 -2.773438 C 11.5 -3.40625 11.5625 -4.054688 11.433594 -4.703125 C 11.304688 -5.335938 11.140625 -5.9375 10.800781 -6.488281 C 10.316406 -7.25 9.699219 -7.816406 8.886719 -8.175781 C 8.417969 -8.386719 7.929688 -8.546875 7.429688 -8.644531 C 6.648438 -8.789062 5.871094 -8.789062 5.09375 -8.675781 Z M 6.261719 -6.957031 C 6.585938 -6.925781 6.828125 -6.761719 7.039062 -6.535156 C 7.445312 -6.097656 7.507812 -5.480469 7.542969 -4.914062 L 7.542969 -4.234375 C 7.542969 -3.648438 7.507812 -3.066406 7.332031 -2.515625 C 7.234375 -2.238281 7.105469 -1.980469 6.894531 -1.785156 C 6.390625 -1.265625 5.707031 -1.394531 5.289062 -1.929688 C 5.15625 -2.074219 5.027344 -2.269531 4.960938 -2.449219 C 4.753906 -3 4.71875 -3.585938 4.6875 -4.152344 C 4.636719 -4.867188 4.867188 -5.53125 5.109375 -6.195312 C 5.289062 -6.699219 5.757812 -7.007812 6.261719 -6.957031 Z M 6.261719 -6.957031 "/></g></g></g><g fill="#646464" fill-opacity="1"><g transform="translate(71.22457, 29.80342)"><g><path d="M 15.082031 -11.386719 C 15.035156 -11.386719 14.9375 -11.386719 14.871094 -11.367188 C 14.320312 -11.367188 13.769531 -11.351562 13.21875 -11.320312 C 12.957031 -11.304688 12.683594 -11.289062 12.421875 -11.289062 C 11.96875 -11.289062 11.53125 -11.320312 11.078125 -11.320312 C 10.898438 -11.335938 10.832031 -11.273438 10.769531 -11.140625 C 10.640625 -10.867188 10.527344 -10.574219 10.378906 -10.296875 C 10.070312 -9.714844 9.761719 -9.132812 9.457031 -8.5625 C 9.277344 -8.207031 9.050781 -7.851562 8.871094 -7.492188 C 8.710938 -7.136719 8.5 -6.8125 8.386719 -6.4375 C 8.335938 -6.292969 8.238281 -6.164062 8.15625 -6.015625 C 7.71875 -6.570312 7.378906 -7.167969 7.039062 -7.800781 C 6.730469 -8.335938 6.359375 -8.824219 6.082031 -9.375 C 5.757812 -10.023438 5.351562 -10.640625 5.09375 -11.320312 C 5.058594 -11.386719 4.996094 -11.386719 4.898438 -11.386719 C 4.785156 -11.386719 4.65625 -11.367188 4.542969 -11.367188 C 3.972656 -11.351562 3.390625 -11.367188 2.820312 -11.367188 C 2.222656 -11.351562 1.671875 -11.320312 1.054688 -11.367188 C 1.003906 -11.238281 0.957031 -11.125 0.988281 -10.980469 C 1.003906 -10.816406 0.972656 -10.640625 0.988281 -10.445312 C 1.003906 -10.152344 1.023438 -9.859375 1.023438 -9.550781 C 1.003906 -9.132812 1.070312 -8.726562 1.039062 -8.304688 C 1.003906 -7.898438 1.054688 -7.492188 1.054688 -7.070312 L 1.054688 -5.515625 C 1.054688 -5.027344 1.054688 -4.558594 1.070312 -4.085938 L 1.054688 -2.222656 C 1.070312 -1.863281 1.054688 -1.507812 1.039062 -1.167969 C 1.023438 -0.84375 1.054688 -0.503906 1.023438 -0.195312 C 1.023438 -0.0976562 1.085938 -0.015625 1.199219 -0.046875 C 1.589844 -0.128906 2.207031 -0.0664062 2.59375 -0.0820312 C 2.773438 -0.0976562 2.691406 -0.4375 2.691406 -0.503906 C 2.675781 -0.890625 2.707031 -1.25 2.691406 -1.621094 C 2.660156 -2.269531 2.660156 -2.933594 2.675781 -3.601562 C 2.691406 -4.007812 2.691406 -4.445312 2.675781 -4.867188 C 2.675781 -5.191406 2.660156 -5.515625 2.644531 -5.839844 C 2.644531 -5.984375 2.691406 -6.148438 2.660156 -6.277344 C 2.609375 -6.570312 2.644531 -6.84375 2.609375 -7.167969 C 2.773438 -6.957031 2.855469 -6.777344 2.96875 -6.601562 C 3.128906 -6.339844 3.308594 -6.066406 3.488281 -5.824219 C 3.746094 -5.480469 3.941406 -5.125 4.152344 -4.769531 C 4.476562 -4.25 4.800781 -3.699219 5.140625 -3.179688 C 5.320312 -2.886719 5.515625 -2.609375 5.691406 -2.320312 C 5.742188 -2.253906 5.789062 -2.207031 5.855469 -2.207031 C 6 -2.207031 6.148438 -2.207031 6.292969 -2.222656 C 6.894531 -2.253906 7.507812 -2.351562 8.09375 -2.222656 C 8.269531 -2.191406 8.367188 -2.253906 8.433594 -2.417969 C 8.613281 -2.871094 8.804688 -3.308594 9.035156 -3.730469 C 9.503906 -4.65625 9.957031 -5.5625 10.445312 -6.472656 C 10.558594 -6.664062 10.6875 -6.84375 10.832031 -7.039062 C 10.914062 -6.261719 10.800781 -5.515625 10.816406 -4.753906 C 10.832031 -4.265625 10.851562 -3.746094 10.816406 -3.242188 C 10.769531 -2.59375 10.769531 -1.960938 10.769531 -1.3125 C 10.753906 -0.910156 10.71875 -0.226562 10.785156 -0.0664062 C 10.898438 -0.03125 10.929688 0.015625 11.027344 0 C 11.402344 -0.0664062 11.773438 -0.015625 12.148438 0 C 12.957031 0.03125 13.769531 -0.0976562 14.5625 -0.0820312 L 15.148438 -0.0820312 C 15.261719 -0.179688 15.277344 -0.292969 15.261719 -0.421875 C 15.261719 -0.664062 15.246094 -0.941406 15.246094 -1.183594 C 15.246094 -1.425781 15.261719 -1.6875 15.230469 -1.929688 C 15.195312 -2.269531 15.210938 -2.59375 15.195312 -2.933594 C 15.179688 -3.292969 15.179688 -3.632812 15.195312 -3.988281 C 15.195312 -4.265625 15.148438 -4.523438 15.164062 -4.785156 C 15.195312 -5.402344 15.210938 -6.015625 15.210938 -6.648438 C 15.210938 -6.988281 15.179688 -7.363281 15.210938 -7.703125 C 15.230469 -8.027344 15.195312 -8.335938 15.195312 -8.660156 C 15.210938 -9.066406 15.164062 -9.472656 15.132812 -9.878906 L 15.132812 -11.109375 C 15.132812 -11.222656 15.210938 -11.304688 15.082031 -11.386719 Z M 15.082031 -11.386719 "/></g></g></g><g fill="#646464" fill-opacity="1"><g transform="translate(87.486672, 29.80342)"><g><path d="M 6.617188 -8.710938 C 5.917969 -8.726562 5.222656 -8.710938 4.523438 -8.660156 C 3.601562 -8.578125 2.707031 -8.351562 1.847656 -8.011719 C 1.6875 -7.945312 1.492188 -7.898438 1.394531 -7.65625 C 1.6875 -7.152344 2.074219 -6.308594 2.253906 -6.195312 C 2.304688 -6.148438 2.578125 -6.324219 2.742188 -6.40625 C 3.179688 -6.648438 3.472656 -6.683594 3.925781 -6.796875 C 4.558594 -6.957031 5.125 -7.054688 5.773438 -6.828125 C 6.324219 -6.632812 6.648438 -6.210938 6.585938 -5.613281 C 6.472656 -5.578125 6.277344 -5.628906 6.164062 -5.613281 C 5.871094 -5.59375 5.59375 -5.644531 5.304688 -5.644531 C 4.507812 -5.675781 3.714844 -5.578125 2.953125 -5.367188 C 2.191406 -5.15625 1.574219 -4.753906 1.167969 -4.070312 C 0.746094 -3.339844 0.632812 -2.578125 0.8125 -1.769531 C 1.003906 -0.910156 1.558594 -0.339844 2.351562 0 C 3.066406 0.292969 3.828125 0.277344 4.589844 0.179688 C 5.382812 0.0664062 6.113281 -0.210938 6.746094 -0.746094 C 6.8125 -0.792969 6.859375 -0.859375 6.957031 -0.859375 C 7.316406 -0.679688 7.476562 -0.292969 7.785156 0.015625 C 8.644531 0.015625 9.503906 -0.0820312 10.347656 0 C 10.445312 -0.128906 10.445312 -0.226562 10.429688 -0.339844 C 10.363281 -1.003906 10.378906 -1.734375 10.394531 -2.398438 C 10.414062 -3.421875 10.394531 -4.445312 10.378906 -5.464844 C 10.363281 -6.035156 10.203125 -6.570312 9.84375 -7.039062 C 9.667969 -7.265625 9.457031 -7.460938 9.226562 -7.640625 C 8.480469 -8.269531 7.621094 -8.675781 6.617188 -8.710938 Z M 6.648438 -4.054688 C 6.648438 -3.355469 6.601562 -2.707031 6.664062 -2.074219 C 6.488281 -1.847656 6.277344 -1.6875 6.035156 -1.589844 C 5.496094 -1.347656 4.769531 -1.734375 4.6875 -2.335938 C 4.589844 -3.179688 4.914062 -3.796875 5.871094 -4.007812 C 6.113281 -4.054688 6.375 -4.054688 6.648438 -4.054688 Z M 6.648438 -4.054688 "/></g></g></g><g fill="#646464" fill-opacity="1"><g transform="translate(98.917159, 29.80342)"><g><path d="M 8.96875 -8.597656 C 7.882812 -8.855469 6.875 -8.613281 5.871094 -8.238281 C 5.402344 -8.058594 4.996094 -7.800781 4.574219 -7.507812 C 4.28125 -7.753906 4.136719 -8.191406 3.925781 -8.464844 C 2.675781 -8.613281 1.960938 -8.480469 0.988281 -8.464844 C 0.957031 -5.660156 0.972656 -2.789062 1.070312 0 L 4.394531 0 C 4.605469 0 4.816406 0.015625 4.996094 -0.144531 C 5.011719 -0.84375 4.945312 -1.507812 4.929688 -2.191406 C 4.898438 -3.242188 4.914062 -4.28125 4.914062 -5.335938 C 4.914062 -5.578125 4.960938 -5.824219 5.027344 -6.035156 C 5.402344 -6.308594 5.726562 -6.617188 6.148438 -6.777344 C 6.8125 -7.023438 7.523438 -6.601562 7.429688 -5.855469 C 7.429688 -5.351562 7.410156 -4.929688 7.445312 -4.460938 C 7.492188 -3.796875 7.476562 -3.113281 7.476562 -2.433594 C 7.476562 -1.816406 7.492188 -1.183594 7.492188 -0.550781 C 7.492188 -0.40625 7.460938 -0.226562 7.542969 -0.0664062 C 7.6875 0.0820312 7.832031 0.0820312 8.011719 0.0820312 C 8.417969 0.046875 8.757812 0.03125 9.164062 0.03125 C 9.859375 0.015625 10.558594 0.015625 11.253906 0 C 11.335938 0 11.402344 0 11.464844 -0.0820312 C 11.433594 -1.328125 11.433594 -2.59375 11.386719 -3.859375 C 11.351562 -4.621094 11.402344 -5.382812 11.351562 -6.148438 C 11.289062 -7.199219 10.703125 -7.882812 9.828125 -8.367188 C 9.550781 -8.515625 9.261719 -8.53125 8.96875 -8.597656 Z M 8.96875 -8.597656 "/></g></g></g></svg>